<svg id='ad' width="227" height="227" viewBox="0 0 227 227" fill="none" xmlns="http://www.w3.org/2000/svg">
<mask id="mask0" mask-type="alpha" maskUnits="userSpaceOnUse" x="0" y="0" width="227" height="227">
<rect width="227" height="227" rx="20" fill="#C4C4C4"/>
</mask>
<g mask="url(#mask0)">
<path d="M166.557 204.426H52.0234C48.6974 204.426 46 201.729 46 198.403V127.188V192.958C46 196.285 48.6974 198.981 52.0234 198.981H159.615C161.817 200.927 164.136 202.746 166.557 204.426Z" fill="#1F867A"/>
<path d="M203.041 198.981H52.0234C48.6974 198.981 46 196.285 46 192.958V30.4691C46 27.1425 48.6974 24.4463 52.0234 24.4463H203.041C206.367 24.4463 209.063 27.1425 209.063 30.4691V192.958C209.063 196.285 206.367 198.981 203.041 198.981Z" fill="#F9FDFE"/>
<path d="M203.041 24.4463H52.0234C48.6974 24.4463 46 27.1425 46 30.4691V57.6746H209.063V30.4691C209.063 27.1425 206.367 24.4463 203.041 24.4463Z" fill="#2FB9A9"/>
<path d="M168.06 38.0224C168.06 42.1723 164.696 45.537 160.546 45.537C156.396 45.537 153.032 42.1723 153.032 38.0224C153.032 33.8725 156.396 30.5078 160.546 30.5078C164.696 30.5078 168.06 33.8725 168.06 38.0224Z" fill="#E82F62"/>
<path d="M164.731 38.0224C164.731 40.3805 162.818 42.2927 160.46 42.2927C158.102 42.2927 156.19 40.3805 156.19 38.0224C156.19 35.6637 158.102 33.7521 160.46 33.7521C162.818 33.7521 164.731 35.6637 164.731 38.0224Z" fill="#F9FDFE"/>
<path d="M160.546 41.1367C158.819 41.1367 157.419 39.7368 157.419 38.0097V22.1276C157.419 20.3999 158.819 19 160.546 19C162.273 19 163.673 20.3999 163.673 22.1276V38.0097C163.673 39.7368 162.273 41.1367 160.546 41.1367Z" fill="#3D61AF"/>
<path d="M200.054 38.0224C200.054 42.1723 196.69 45.537 192.539 45.537C188.389 45.537 185.025 42.1723 185.025 38.0224C185.025 33.8725 188.389 30.5078 192.539 30.5078C196.69 30.5078 200.054 33.8725 200.054 38.0224Z" fill="#E82F62"/>
<path d="M196.81 38.0224C196.81 40.3805 194.898 42.2927 192.539 42.2927C190.181 42.2927 188.27 40.3805 188.27 38.0224C188.27 35.6637 190.181 33.7521 192.539 33.7521C194.898 33.7521 196.81 35.6637 196.81 38.0224Z" fill="#F9FDFE"/>
<path d="M192.539 41.1367C190.813 41.1367 189.412 39.7368 189.412 38.0097V22.1276C189.412 20.3999 190.813 19 192.539 19C194.267 19 195.667 20.3999 195.667 22.1276V38.0097C195.667 39.7368 194.267 41.1367 192.539 41.1367Z" fill="#3D61AF"/>
<path d="M72.079 38.0224C72.079 42.1723 68.7149 45.537 64.565 45.537C60.4145 45.537 57.0504 42.1723 57.0504 38.0224C57.0504 33.8725 60.4145 30.5078 64.565 30.5078C68.7149 30.5078 72.079 33.8725 72.079 38.0224Z" fill="#E82F62"/>
<path d="M68.8778 38.0224C68.8778 40.3805 66.9662 42.2927 64.6081 42.2927C62.2494 42.2927 60.3378 40.3805 60.3378 38.0224C60.3378 35.6637 62.2494 33.7521 64.6081 33.7521C66.9662 33.7521 68.8778 35.6637 68.8778 38.0224Z" fill="#F9FDFE"/>
<path d="M64.5651 41.1367C62.838 41.1367 61.4376 39.7368 61.4376 38.0097V22.1276C61.4376 20.3999 62.838 19 64.5651 19C66.2916 19 67.692 20.3999 67.692 22.1276V38.0097C67.692 39.7368 66.2916 41.1367 64.5651 41.1367Z" fill="#3D61AF"/>
<path d="M104.073 38.0224C104.073 42.1723 100.709 45.537 96.5587 45.537C92.4082 45.537 89.0441 42.1723 89.0441 38.0224C89.0441 33.8725 92.4082 30.5078 96.5587 30.5078C100.709 30.5078 104.073 33.8725 104.073 38.0224Z" fill="#E82F62"/>
<path d="M100.829 38.0224C100.829 40.3805 98.9167 42.2927 96.5587 42.2927C94.2 42.2927 92.2884 40.3805 92.2884 38.0224C92.2884 35.6637 94.2 33.7521 96.5587 33.7521C98.9167 33.7521 100.829 35.6637 100.829 38.0224Z" fill="#F9FDFE"/>
<path d="M96.5586 41.1367C94.8315 41.1367 93.4311 39.7368 93.4311 38.0097V22.1276C93.4311 20.3999 94.8315 19 96.5586 19C98.2857 19 99.6862 20.3999 99.6862 22.1276V38.0097C99.6862 39.7368 98.2857 41.1367 96.5586 41.1367Z" fill="#3D61AF"/>
<path d="M136.067 38.0224C136.067 42.1723 132.702 45.537 128.552 45.537C124.402 45.537 121.038 42.1723 121.038 38.0224C121.038 33.8725 124.402 30.5078 128.552 30.5078C132.702 30.5078 136.067 33.8725 136.067 38.0224Z" fill="#E82F62"/>
<path d="M132.823 37.8028C132.823 40.1615 130.911 42.0731 128.552 42.0731C126.194 42.0731 124.282 40.1615 124.282 37.8028C124.282 35.4447 126.194 33.5325 128.552 33.5325C130.911 33.5325 132.823 35.4447 132.823 37.8028Z" fill="#F9FDFE"/>
<path d="M128.552 41.1367C126.825 41.1367 125.425 39.7368 125.425 38.0097V22.1276C125.425 20.3999 126.825 19 128.552 19C130.279 19 131.68 20.3999 131.68 22.1276V38.0097C131.68 39.7368 130.279 41.1367 128.552 41.1367Z" fill="#3D61AF"/>
<path d="M109.365 94.0854H88.4282C88.1892 94.0854 87.9551 93.9886 87.7864 93.8192C87.6176 93.6504 87.5208 93.4169 87.5208 93.178V72.2415C87.5208 72.0026 87.6176 71.7691 87.7864 71.5997C87.9551 71.4309 88.1892 71.3341 88.4282 71.3341H109.365C109.604 71.3341 109.837 71.4309 110.006 71.5997C110.175 71.7691 110.272 72.0026 110.272 72.2415V93.178C110.272 93.4169 110.175 93.6504 110.006 93.8192C109.837 93.9886 109.604 94.0854 109.365 94.0854ZM109.365 93.178V92.2706V93.178ZM89.3356 73.1489V92.2706H108.457V73.1489H89.3356Z" fill="#8FA8CF"/>
<path d="M135.684 94.0854H117.259C117.02 94.0854 116.787 93.9886 116.617 93.8192C116.449 93.6504 116.352 93.4169 116.352 93.178V72.2415C116.352 72.0026 116.449 71.7691 116.617 71.5997C116.787 71.4309 117.02 71.3341 117.259 71.3341H138.196C138.435 71.3341 138.668 71.4309 138.837 71.5997C139.006 71.7691 139.103 72.0026 139.103 72.2415V87.2997L137.288 89.0638V73.1489H118.167V92.2706H135.542C135.474 92.8761 135.521 93.4931 135.684 94.0854Z" fill="#8FA8CF"/>
<path d="M166.12 81.7797V73.149H163.595C163.388 72.492 163.036 71.8701 162.538 71.3341H167.027C167.266 71.3341 167.5 71.4309 167.668 71.5997C167.837 71.7691 167.934 72.0026 167.934 72.2415V80.5407C167.322 80.9461 166.719 81.3574 166.12 81.7797ZM145.183 81.3883V72.2415C145.183 72.0026 145.28 71.7691 145.449 71.5997C145.618 71.4309 145.852 71.3341 146.091 71.3341H155.524L153.658 73.149H146.998V79.6237L145.183 81.3883Z" fill="#8FA8CF"/>
<path d="M174.014 76.9208V72.2416C174.014 72.0026 174.111 71.7691 174.28 71.5997C174.449 71.4309 174.683 71.3341 174.922 71.3341H187.566C185.771 71.8738 184.001 72.4805 182.266 73.149H175.829V75.9855C175.221 76.2886 174.613 76.602 174.014 76.9208Z" fill="#8FA8CF"/>
<path d="M80.3377 122.302H59.4013C59.1624 122.302 58.9282 122.205 58.7595 122.036C58.5907 121.867 58.4939 121.633 58.4939 121.394V119.493C58.5278 119.477 58.5598 119.462 58.5889 119.449C59.1817 119.184 59.7135 118.991 60.3087 118.828V120.487H79.4303V101.365H60.3087V114.715C60.0825 114.856 59.9173 114.941 59.8284 114.956C59.6808 114.981 59.1999 115.081 58.4939 115.232V100.457C58.4939 100.219 58.5907 99.9848 58.7595 99.816C58.9282 99.6466 59.1624 99.5498 59.4013 99.5498H80.3377C80.5767 99.5498 80.8102 99.6466 80.979 99.816C81.1484 99.9848 81.2452 100.219 81.2452 100.457V121.394C81.2452 121.633 81.1484 121.867 80.979 122.036C80.8102 122.205 80.5767 122.302 80.3377 122.302ZM80.3377 121.394V120.487V121.394Z" fill="#8FA8CF"/>
<path d="M109.169 122.302H88.2328C87.9933 122.302 87.7598 122.205 87.591 122.036C87.4216 121.867 87.3254 121.633 87.3254 121.394V100.457C87.3254 100.219 87.4216 99.9848 87.591 99.816C87.7598 99.6466 87.9933 99.5498 88.2328 99.5498H109.169C109.408 99.5498 109.642 99.6466 109.81 99.816C109.979 99.9848 110.076 100.219 110.076 100.457V121.394C110.076 121.633 109.979 121.867 109.81 122.036C109.642 122.205 109.408 122.302 109.169 122.302ZM109.169 121.394V120.487V121.394ZM89.1396 101.365V120.487H108.261V101.365H89.1396Z" fill="#8FA8CF"/>
<path d="M137.199 122.302H117.064C116.825 122.302 116.591 122.205 116.423 122.036C116.253 121.867 116.156 121.633 116.156 121.394V100.457C116.156 100.219 116.253 99.9848 116.423 99.816C116.591 99.6466 116.825 99.5498 117.064 99.5498H138C138.239 99.5498 138.473 99.6466 138.642 99.816C138.811 99.9848 138.908 100.219 138.908 100.457V117.094C138.276 118.803 137.706 120.538 137.199 122.302ZM117.971 101.365V120.487H137.093V101.365H117.971Z" fill="#8FA8CF"/>
<path d="M144.988 104.46V100.457C144.988 100.219 145.085 99.9848 145.253 99.8161C145.423 99.6467 145.656 99.5499 145.895 99.5499H148.217C147.789 100.148 147.37 100.754 146.959 101.365H146.803V101.598C146.177 102.537 145.572 103.492 144.988 104.46Z" fill="#8FA8CF"/>
<path d="M80.1423 150.517H59.2059C58.967 150.517 58.7328 150.421 58.5641 150.252C58.3953 150.083 58.2985 149.849 58.2985 149.61V128.674C58.2985 128.435 58.3953 128.201 58.5641 128.032C58.7328 127.863 58.967 127.766 59.2059 127.766H80.1423C80.3807 127.766 80.6148 127.863 80.7836 128.032C80.9524 128.201 81.0498 128.435 81.0498 128.674V149.61C81.0498 149.849 80.9524 150.083 80.7836 150.252C80.6148 150.421 80.3807 150.517 80.1423 150.517ZM80.1423 149.61V148.703V149.61ZM60.1133 129.581V148.703H79.2343V129.581H60.1133Z" fill="#8FA8CF"/>
<path d="M108.973 150.517H88.0367C87.7978 150.517 87.5643 150.421 87.3955 150.252C87.2261 150.083 87.1293 149.849 87.1293 149.61V128.674C87.1293 128.435 87.2261 128.201 87.3955 128.032C87.5643 127.863 87.7978 127.766 88.0367 127.766H108.973C109.212 127.766 109.446 127.863 109.615 128.032C109.784 128.201 109.881 128.435 109.881 128.674V149.61C109.881 149.849 109.784 150.083 109.615 150.252C109.446 150.421 109.212 150.517 108.973 150.517ZM108.973 149.61V148.703V149.61ZM88.9442 129.581V148.703H108.066V129.581H88.9442Z" fill="#8FA8CF"/>
<path d="M134.679 150.517H116.868C116.629 150.517 116.396 150.421 116.227 150.252C116.058 150.083 115.961 149.849 115.961 149.61V128.674C115.961 128.435 116.058 128.201 116.227 128.032C116.396 127.863 116.629 127.766 116.868 127.766H135.848C135.724 128.369 135.606 128.973 135.496 129.581H117.776V148.703H134.518C134.565 149.31 134.619 149.914 134.679 150.517Z" fill="#8FA8CF"/>
<path d="M79.9464 178.734H59.01C58.771 178.734 58.5375 178.637 58.3687 178.468C58.1993 178.299 58.1025 178.065 58.1025 177.826V156.889C58.1025 156.651 58.1993 156.417 58.3687 156.248C58.5375 156.079 58.771 155.982 59.01 155.982H79.9464C80.1853 155.982 80.4189 156.079 80.5882 156.248C80.757 156.417 80.8538 156.651 80.8538 156.889V177.826C80.8538 178.065 80.757 178.299 80.5882 178.468C80.4189 178.637 80.1853 178.734 79.9464 178.734ZM79.9464 177.826V176.919V177.826ZM59.9174 157.797V176.919H79.039V157.797H59.9174Z" fill="#8FA8CF"/>
<path d="M97.2949 90.6996C96.8805 90.6996 96.4842 90.5296 96.1987 90.2283L91.1251 84.8867C90.5498 84.2811 90.5746 83.3241 91.1801 82.7488C91.785 82.1729 92.7433 82.1971 93.318 82.8038L97.264 86.9586L108.709 74.2203C109.267 73.5991 110.224 73.5483 110.845 74.106C111.466 74.6644 111.517 75.6202 110.959 76.242L98.4201 90.1975C98.1382 90.5114 97.7377 90.6935 97.316 90.6996H97.2949Z" fill="#F03A74"/>
<path d="M96.2393 146.468C95.8249 146.468 95.4287 146.298 95.1425 145.997L90.0689 140.656C89.493 140.05 89.5184 139.093 90.1233 138.517C90.7289 137.941 91.6865 137.966 92.2618 138.572L96.2084 142.727L107.653 129.989C108.211 129.368 109.167 129.317 109.789 129.875C110.41 130.433 110.461 131.389 109.903 132.011L97.3645 145.966C97.082 146.28 96.6821 146.462 96.2604 146.468H96.2393Z" fill="#F03A74"/>
<path d="M167.755 87.4026L152.857 101.887L142.215 90.9403L157.112 76.4568L167.755 87.4026Z" fill="#353899"/>
<path d="M162.367 78.0133L143.623 96.2372C141.73 98.0768 138.704 98.0345 136.865 96.1422C135.025 94.2494 135.067 91.2234 136.96 89.3832L155.704 71.1599C157.597 69.3197 160.623 69.3627 162.463 71.2549C164.302 73.1472 164.26 76.1737 162.367 78.0133Z" fill="#3D61AF"/>
<path d="M223.829 65.4765V55.4974H193.749V65.4807L223.829 65.4765Z" fill="#252547"/>
<path d="M209.289 91.4708C207.35 91.4708 205.779 89.8992 205.779 87.961C205.779 86.0221 207.35 84.4505 209.289 84.4505C211.227 84.4505 212.799 86.0221 212.799 87.961C212.799 89.8992 211.227 91.4708 209.289 91.4708Z" fill="#92ACB1"/>
<path d="M209.289 200.768C207.35 200.768 205.779 199.196 205.779 197.257C205.779 195.318 207.35 193.747 209.289 193.747C211.227 193.747 212.799 195.318 212.799 197.257C212.799 199.196 211.227 200.768 209.289 200.768Z" fill="#92ACB1"/>
<path d="M154.64 146.12C152.702 146.12 151.13 144.547 151.13 142.609C151.13 140.67 152.702 139.098 154.64 139.098C156.579 139.098 158.151 140.67 158.151 142.609C158.151 144.547 156.579 146.12 154.64 146.12Z" fill="#92ACB1"/>
<path d="M161.701 119.247C161.116 119.247 160.523 119.101 159.978 118.793C158.289 117.84 157.694 115.699 158.647 114.01C159.293 112.868 160.482 112.225 161.707 112.225C162.292 112.225 162.885 112.372 163.43 112.68C165.118 113.634 165.714 115.775 164.76 117.463C164.116 118.606 162.926 119.247 161.701 119.247Z" fill="#92ACB1"/>
<path d="M181.506 99.0629C180.305 99.0629 179.135 98.4458 178.48 97.3364C177.494 95.6673 178.049 93.5149 179.718 92.5289C180.278 92.198 180.893 92.0407 181.5 92.0407C182.701 92.0407 183.871 92.6578 184.526 93.7666C185.511 95.4363 184.957 97.5886 183.287 98.5747C182.727 98.905 182.113 99.0629 181.506 99.0629Z" fill="#92ACB1"/>
<path d="M182.48 193.742C181.897 193.742 181.306 193.597 180.762 193.29C179.073 192.34 178.474 190.199 179.425 188.51C180.069 187.364 181.26 186.721 182.486 186.721C183.07 186.721 183.661 186.866 184.206 187.173C185.895 188.123 186.494 190.264 185.543 191.954C184.898 193.099 183.707 193.742 182.48 193.742Z" fill="#92ACB1"/>
<path d="M162.275 173.972C161.075 173.972 159.906 173.358 159.251 172.251C158.263 170.582 158.814 168.43 160.482 167.441C161.043 167.109 161.659 166.951 162.268 166.951C163.468 166.951 164.636 167.565 165.291 168.672C166.279 170.34 165.728 172.494 164.06 173.482C163.499 173.814 162.883 173.972 162.275 173.972Z" fill="#92ACB1"/>
<path d="M227.712 62.4161H189.866C186.045 62.4161 182.947 59.3182 182.947 55.4968C182.947 51.676 186.045 48.5781 189.866 48.5781H227.712C231.533 48.5781 234.631 51.676 234.631 55.4968C234.631 59.3182 231.533 62.4161 227.712 62.4161Z" fill="#3D61AF"/>
<path d="M224.498 52.9318H192.875C192.188 52.9318 191.631 52.3753 191.631 51.6893C191.631 51.0027 192.188 50.4461 192.875 50.4461H224.498C225.184 50.4461 225.742 51.0027 225.742 51.6893C225.742 52.3753 225.184 52.9318 224.498 52.9318Z" fill="#92A8D0"/>
<path d="M188.876 157.106C188.876 157.106 188.122 153.202 189.763 152.051L204.283 141.869L185.574 108.764C184.588 107.018 186.948 103.818 186.948 103.818C186.948 103.818 190.907 103.447 191.894 105.192L212.224 141.164C213.143 142.79 212.677 144.849 211.148 145.921L193.931 157.994C193.297 158.439 188.876 157.106 188.876 157.106Z" fill="#3D61AF"/>
<path d="M213.643 145.527C212.22 148.057 209.016 148.953 206.486 147.53C203.956 146.106 203.06 142.901 204.483 140.371C205.907 137.841 209.112 136.946 211.641 138.369C214.171 139.793 215.067 142.998 213.643 145.527Z" fill="#F03A74"/>
<path d="M120.552 191.565C116.826 190.594 115.302 197.584 114.754 201.371C114.174 198.852 113.281 196.388 112.216 193.882C113.576 192.006 121.118 181.339 117.237 180.681C113.531 180.052 112.314 190.748 112.062 193.517C111.257 191.648 110.363 189.751 109.434 187.782C109.215 187.318 108.993 186.85 108.772 186.378C110.336 183.576 116.649 171.738 112.746 169.836C108.057 167.553 108.184 180.936 108.36 185.495C107.038 182.658 105.706 179.657 104.544 176.397C105.636 174.398 108.472 168.79 105.914 168.847C103.98 168.89 103.769 172.066 103.886 174.464C103.189 172.306 102.582 170.032 102.107 167.619C102.827 164.972 104.221 158.439 100.325 158.784C96.4994 159.123 99.1521 164.419 100.778 167.132C101.667 171.977 103.092 176.254 104.69 180.168C102.271 177.364 97.3857 172.313 96.056 175.546C94.5406 179.232 102.777 181.188 105.329 181.699C106.317 184.007 107.347 186.196 108.341 188.302C108.73 189.124 109.11 189.932 109.482 190.732C106.747 187.467 102.79 183.725 101.588 185.765C99.5375 189.243 107.736 192.628 110.851 193.765C112.205 196.889 113.297 199.922 113.857 203.058C111.377 200.563 102.272 191.669 101.162 194.497C99.143 199.641 111.226 202.905 113.942 203.569C114.244 205.468 114.352 207.408 114.188 209.433C114.175 209.594 114.225 209.75 114.33 209.874C114.435 209.997 114.581 210.072 114.739 210.084C114.815 210.092 114.892 210.083 114.967 210.061C115.206 209.987 115.374 209.78 115.394 209.53C115.574 207.291 115.444 205.163 115.092 203.088C117.344 200.794 124.901 192.698 120.552 191.565Z" fill="#2FB9A9"/>
<path d="M123.313 198.229C123.94 196.292 124.654 194.321 125.396 192.274C125.571 191.791 125.748 191.304 125.924 190.814C124.106 188.17 116.718 176.97 120.427 174.714C124.883 172.004 126.002 185.341 126.253 189.896C127.305 186.949 128.351 183.837 129.205 180.483C127.932 178.594 124.585 173.275 127.138 173.093C129.068 172.956 129.573 176.098 129.679 178.497C130.172 176.284 130.566 173.963 130.815 171.516C129.851 168.948 127.855 162.573 131.766 162.554C135.606 162.536 133.458 168.055 132.092 170.908C131.658 175.814 130.637 180.206 129.411 184.251C131.558 181.234 135.951 175.75 137.577 178.846C139.428 182.375 131.41 185.089 128.916 185.836C128.148 188.225 127.327 190.5 126.532 192.69C126.222 193.544 125.918 194.384 125.623 195.215C128.042 191.71 131.633 187.616 133.02 189.535C135.386 192.808 127.537 196.941 124.542 198.362C123.485 201.599 122.679 204.721 122.414 207.896C124.651 205.18 132.888 195.477 134.257 198.189C136.746 203.123 125.02 207.498 122.377 208.411C122.253 210.331 122.327 212.272 122.678 214.274C122.706 214.433 122.67 214.593 122.578 214.725C122.485 214.857 122.346 214.946 122.19 214.973C122.114 214.987 122.038 214.987 121.961 214.97C121.716 214.92 121.53 214.729 121.487 214.483C121.098 212.269 121.03 210.139 121.187 208.039C121.55 204.481 122.5 200.752 123.313 198.229Z" fill="#2FB9A9"/>
<path d="M127.019 226.63H111.703L108.679 207.862H130.043L127.019 226.63Z" fill="#ECD042"/>
<path d="M193.908 81.4808H223.988V59.3799H193.908V81.4808Z" fill="#353899"/>
<path d="M209.065 78.0423C173.275 78.0423 144.157 107.161 144.157 142.95C144.157 178.739 173.275 207.857 209.065 207.857C244.853 207.857 273.97 178.739 273.97 142.95C273.97 107.161 244.853 78.0423 209.065 78.0423ZM209.065 217.714C167.839 217.714 134.299 184.175 134.299 142.95C134.299 101.725 167.839 68.1842 209.065 68.1842C250.289 68.1842 283.828 101.725 283.828 142.95C283.828 184.175 250.289 217.714 209.065 217.714Z" fill="#F03A74"/>
<path d="M209.362 207.796C173.572 207.796 144.454 178.679 144.454 142.889C144.454 142.273 144.463 141.657 144.48 141.045C144.48 141.055 144.48 141.065 144.481 141.074C145.4 107.776 171.519 80.6629 204.407 78.1694L204.408 78.1687C204.476 78.1639 204.543 78.1591 204.61 78.1542H204.61C204.644 78.1518 204.677 78.1494 204.711 78.147L204.713 78.1464C204.73 78.1458 204.745 78.1445 204.762 78.1433H204.763C204.78 78.1421 204.794 78.1409 204.811 78.1397H204.815C204.832 78.1385 204.846 78.1373 204.863 78.1361H204.864C204.881 78.1349 204.896 78.1337 204.913 78.1324H204.916C204.933 78.1312 204.946 78.1306 204.963 78.1294C204.965 78.1294 204.965 78.1294 204.967 78.1288C204.984 78.1282 204.996 78.127 205.013 78.1258C205.015 78.1258 205.017 78.1258 205.019 78.1258C205.036 78.1246 205.048 78.1234 205.065 78.1228C205.067 78.1222 205.066 78.1222 205.068 78.1222C205.085 78.121 205.097 78.1203 205.114 78.1191C205.116 78.1191 205.119 78.1191 205.122 78.1191C205.136 78.1179 205.151 78.1167 205.166 78.1161C205.168 78.1161 205.169 78.1161 205.171 78.1155C205.187 78.1149 205.199 78.1137 205.216 78.1131C205.218 78.1125 205.22 78.1125 205.222 78.1125C205.254 78.1107 205.287 78.1082 205.319 78.1064H205.322C205.339 78.1052 205.353 78.104 205.37 78.1034C205.372 78.1034 205.371 78.1034 205.373 78.1028C205.39 78.1022 205.403 78.101 205.42 78.1004C205.422 78.1004 205.424 78.0998 205.426 78.0998C205.441 78.0992 205.457 78.098 205.472 78.0974C205.474 78.0968 205.472 78.0974 205.474 78.0968C205.491 78.0962 205.505 78.0949 205.522 78.0943C205.524 78.0943 205.525 78.0937 205.527 78.0937C205.542 78.0931 205.557 78.0919 205.572 78.0913C205.574 78.0913 205.578 78.0907 205.58 78.0907C205.595 78.0901 205.608 78.0889 205.623 78.0883C205.625 78.0883 205.628 78.0883 205.63 78.0877C205.662 78.0859 205.694 78.0841 205.726 78.0822H205.727C205.761 78.0804 205.794 78.0786 205.827 78.0768C205.83 78.0768 205.828 78.0768 205.831 78.0768C206.099 78.0623 206.369 78.0496 206.639 78.0381H206.644C206.676 78.0369 206.704 78.0357 206.736 78.0345C206.739 78.0345 206.745 78.0338 206.747 78.0338C206.76 78.0332 206.774 78.0326 206.787 78.032C206.791 78.032 206.794 78.032 206.798 78.032C206.811 78.0314 206.82 78.0308 206.833 78.0308C206.84 78.0302 206.844 78.0302 206.85 78.0296C206.861 78.0296 206.878 78.029 206.889 78.0284C206.893 78.0284 206.896 78.0284 206.9 78.0278C206.913 78.0272 206.927 78.0272 206.939 78.0266C206.944 78.0266 206.948 78.026 206.952 78.026C206.965 78.0254 206.978 78.0254 206.99 78.0248C206.995 78.0248 206.999 78.0242 207.004 78.0242C207.016 78.0236 207.025 78.0236 207.037 78.023C207.043 78.023 207.05 78.0224 207.057 78.0224C207.068 78.0217 207.078 78.0217 207.088 78.0211C207.095 78.0211 207.101 78.0205 207.108 78.0205C207.118 78.0199 207.128 78.0199 207.139 78.0193C207.146 78.0193 207.154 78.0187 207.16 78.0187C207.17 78.0181 207.18 78.0181 207.19 78.0175C207.199 78.0175 207.203 78.0175 207.211 78.0169C207.219 78.0169 207.232 78.0163 207.24 78.0163C207.249 78.0157 207.255 78.0157 207.264 78.0151C207.275 78.0151 207.282 78.0145 207.293 78.0145C207.299 78.0145 207.307 78.0139 207.313 78.0139C207.324 78.0133 207.335 78.0133 207.345 78.0127C207.352 78.0127 207.359 78.0127 207.365 78.0121C207.376 78.0121 207.386 78.0115 207.397 78.0115C207.403 78.0108 207.411 78.0108 207.417 78.0108C207.428 78.0102 207.437 78.0102 207.447 78.0096C207.454 78.0096 207.463 78.009 207.469 78.009C207.48 78.009 207.488 78.0084 207.499 78.0084C207.506 78.0078 207.514 78.0078 207.52 78.0078C207.531 78.0072 207.539 78.0072 207.55 78.0066C207.556 78.0066 207.566 78.0066 207.573 78.006C207.584 78.006 207.591 78.006 207.602 78.0054C207.608 78.0054 207.618 78.0048 207.624 78.0048C207.634 78.0048 207.642 78.0042 207.652 78.0042C207.661 78.0036 207.668 78.0036 207.677 78.0036C207.685 78.003 207.696 78.003 207.705 78.003C207.713 78.0024 207.718 78.0024 207.727 78.0024C207.735 78.0018 207.748 78.0018 207.756 78.0018C207.765 78.0012 207.771 78.0012 207.78 78.0012C207.788 78.0006 207.8 78.0006 207.808 78C207.817 78 207.821 78 207.83 78C207.839 77.9994 207.851 77.9994 207.859 77.9987C207.869 77.9987 207.874 77.9987 207.883 77.9987C207.891 77.9982 207.902 77.9982 207.912 77.9982C207.92 77.9975 207.925 77.9975 207.934 77.9975C207.942 77.9969 207.954 77.9969 207.962 77.9969C207.971 77.9963 207.977 77.9963 207.986 77.9963C207.997 77.9963 208.005 77.9957 208.016 77.9957C208.022 77.9957 208.03 77.9951 208.036 77.9951C208.045 77.9951 208.057 77.9951 208.066 77.9945C208.075 77.9945 208.082 77.9945 208.09 77.9939C208.101 77.9939 208.108 77.9939 208.118 77.9939C208.124 77.9933 208.133 77.9933 208.14 77.9933C208.15 77.9933 208.16 77.9927 208.17 77.9927C208.177 77.9927 208.186 77.9927 208.192 77.9921C208.203 77.9921 208.21 77.9921 208.221 77.9915C208.228 77.9915 208.238 77.9915 208.244 77.9915C208.255 77.9915 208.262 77.9909 208.273 77.9909C208.279 77.9909 208.291 77.9909 208.297 77.9903C208.306 77.9903 208.316 77.9903 208.325 77.9903C208.331 77.9897 208.341 77.9897 208.348 77.9897C208.358 77.9897 208.366 77.9897 208.376 77.9891C208.385 77.9891 208.391 77.9891 208.4 77.9891C208.409 77.9891 208.42 77.9885 208.429 77.9885C208.437 77.9885 208.442 77.9885 208.451 77.9885C208.462 77.9879 208.469 77.9879 208.48 77.9879C208.489 77.9879 208.496 77.9879 208.504 77.9873C208.513 77.9873 208.523 77.9873 208.532 77.9873C208.541 77.9873 208.547 77.9873 208.555 77.9867C208.564 77.9867 208.575 77.9867 208.583 77.9867C208.591 77.9867 208.6 77.9861 208.608 77.9861C208.618 77.9861 208.627 77.9861 208.635 77.9861C208.644 77.9861 208.651 77.9861 208.66 77.9854C208.668 77.9854 208.678 77.9854 208.686 77.9854C208.696 77.9854 208.705 77.9854 208.714 77.9848C208.722 77.9848 208.729 77.9848 208.738 77.9848C208.747 77.9848 208.754 77.9848 208.763 77.9848C208.771 77.9848 208.783 77.9842 208.791 77.9842C208.798 77.9842 208.807 77.9842 208.813 77.9842C208.822 77.9842 208.834 77.9842 208.843 77.9842C208.851 77.9836 208.86 77.9836 208.869 77.9836C208.877 77.9836 208.885 77.9836 208.894 77.9836C208.902 77.9836 208.914 77.9836 208.922 77.9836C208.929 77.9836 208.939 77.983 208.946 77.983C208.954 77.983 208.966 77.983 208.975 77.983C208.981 77.983 208.991 77.983 208.997 77.983C209.008 77.983 209.017 77.983 209.028 77.983C209.037 77.983 209.041 77.9824 209.049 77.9824C209.06 77.9824 209.066 77.9824 209.077 77.9824C209.086 77.9824 209.093 77.9824 209.102 77.9824C209.113 77.9824 209.122 77.9824 209.133 77.9824C209.141 77.9824 209.144 77.9824 209.153 77.9824C209.166 77.9824 209.177 77.9824 209.19 77.9824C209.196 77.9824 209.199 77.9824 209.205 77.9818C209.218 77.9818 209.233 77.9818 209.247 77.9818C209.251 77.9818 209.253 77.9818 209.257 77.9818C209.268 77.9818 209.279 77.9818 209.29 77.9818C209.296 77.9818 209.304 77.9818 209.31 77.9818C209.327 77.9818 209.344 77.9818 209.362 77.9818C209.379 77.9818 209.395 77.9818 209.413 77.9818C209.42 77.9818 209.426 77.9818 209.433 77.9818C209.444 77.9818 209.455 77.9818 209.466 77.9818C209.47 77.9818 209.472 77.9818 209.477 77.9818C209.489 77.9818 209.505 77.9818 209.518 77.9818C209.524 77.9824 209.526 77.9824 209.532 77.9824C209.545 77.9824 209.556 77.9824 209.57 77.9824C209.576 77.9824 209.584 77.9824 209.59 77.9824C209.601 77.9824 209.61 77.9824 209.621 77.9824C209.63 77.9824 209.637 77.9824 209.645 77.9824C209.656 77.9824 209.662 77.9824 209.673 77.9824C209.682 77.9824 209.686 77.983 209.694 77.983C209.705 77.983 209.715 77.983 209.726 77.983C209.732 77.983 209.741 77.983 209.748 77.983C209.757 77.983 209.768 77.983 209.777 77.983C209.784 77.983 209.793 77.9836 209.8 77.9836C209.809 77.9836 209.82 77.9836 209.829 77.9836C209.836 77.9836 209.847 77.9836 209.854 77.9836C209.862 77.9836 209.872 77.9836 209.881 77.9842C209.889 77.9842 209.9 77.9842 209.908 77.9842C209.915 77.9842 209.925 77.9842 209.931 77.9842C209.94 77.9842 209.951 77.9848 209.96 77.9848C209.968 77.9848 209.976 77.9848 209.985 77.9848C209.993 77.9848 210 77.9848 210.009 77.9848C210.017 77.9854 210.028 77.9854 210.036 77.9854C210.045 77.9854 210.054 77.9854 210.063 77.9854C210.071 77.9861 210.079 77.9861 210.088 77.9861C210.097 77.9861 210.105 77.9861 210.114 77.9861C210.122 77.9861 210.131 77.9867 210.14 77.9867C210.149 77.9867 210.158 77.9867 210.167 77.9867C210.176 77.9873 210.182 77.9873 210.192 77.9873C210.2 77.9873 210.209 77.9873 210.218 77.9873C210.227 77.9879 210.235 77.9879 210.244 77.9879C210.252 77.9879 210.262 77.9879 210.271 77.9885C210.28 77.9885 210.286 77.9885 210.294 77.9885C210.303 77.9885 210.314 77.9891 210.322 77.9891C210.331 77.9891 210.338 77.9891 210.347 77.9891C210.357 77.9897 210.364 77.9897 210.375 77.9897C210.383 77.9897 210.39 77.9897 210.398 77.9903C210.407 77.9903 210.416 77.9903 210.424 77.9903C210.434 77.9909 210.442 77.9909 210.451 77.9909C210.461 77.9909 210.467 77.9915 210.478 77.9915C210.484 77.9915 210.495 77.9915 210.502 77.9915C210.513 77.9921 210.519 77.9921 210.53 77.9921C210.536 77.9921 210.547 77.9927 210.553 77.9927C210.564 77.9927 210.571 77.9933 210.582 77.9933C210.588 77.9933 210.599 77.9933 210.605 77.9939C210.614 77.9939 210.623 77.9939 210.632 77.9939C210.64 77.9945 210.649 77.9945 210.657 77.9945C210.666 77.9951 210.677 77.9951 210.686 77.9951C210.692 77.9951 210.702 77.9957 210.708 77.9957C210.717 77.9957 210.727 77.9963 210.735 77.9963C210.744 77.9963 210.753 77.9963 210.761 77.9969C210.77 77.9969 210.78 77.9969 210.788 77.9975C210.796 77.9975 210.804 77.9975 210.812 77.9982C210.821 77.9982 210.83 77.9982 210.839 77.9987C210.848 77.9987 210.855 77.9987 210.864 77.9994C210.873 77.9994 210.883 77.9994 210.891 78C210.9 78 210.907 78 210.916 78.0006C210.925 78.0006 210.933 78.0006 210.942 78.0012C210.951 78.0012 210.959 78.0012 210.968 78.0018C210.977 78.0018 210.986 78.0018 210.995 78.0024C211.003 78.0024 211.011 78.0024 211.02 78.003C211.028 78.003 211.036 78.003 211.045 78.0036C211.054 78.0036 211.063 78.0042 211.072 78.0042C211.081 78.0042 211.089 78.0048 211.098 78.0048C211.106 78.0048 211.114 78.0054 211.123 78.0054C211.132 78.006 211.14 78.006 211.149 78.006C211.158 78.0066 211.166 78.0066 211.175 78.0066C211.185 78.0072 211.19 78.0072 211.201 78.0078C211.21 78.0078 211.218 78.0078 211.226 78.0084C211.234 78.0084 211.244 78.009 211.252 78.009C211.26 78.009 211.269 78.0096 211.278 78.0096C211.288 78.0102 211.294 78.0102 211.305 78.0108C211.311 78.0108 211.322 78.0108 211.329 78.0115C211.339 78.0115 211.345 78.0121 211.356 78.0121C211.365 78.0127 211.371 78.0127 211.38 78.0127C211.391 78.0133 211.397 78.0133 211.408 78.0139C211.417 78.0139 211.424 78.0145 211.433 78.0145C211.442 78.0151 211.449 78.0151 211.458 78.0151C211.466 78.0157 211.477 78.0157 211.486 78.0163C211.494 78.0163 211.502 78.0169 211.51 78.0169C211.519 78.0175 211.528 78.0175 211.536 78.0181C211.545 78.0181 211.553 78.0187 211.561 78.0187C211.57 78.0187 211.579 78.0193 211.588 78.0193C211.596 78.0199 211.605 78.0199 211.614 78.0205C211.622 78.0205 211.631 78.0211 211.639 78.0211C211.648 78.0217 211.656 78.0217 211.665 78.0224C211.673 78.0224 211.682 78.023 211.69 78.023C211.699 78.0236 211.709 78.0236 211.718 78.0242C211.724 78.0242 211.732 78.0248 211.738 78.0248C211.747 78.0254 211.76 78.0254 211.769 78.026C211.775 78.026 211.784 78.0266 211.79 78.0266C211.799 78.0272 211.812 78.0278 211.821 78.0278C211.829 78.0284 211.835 78.0284 211.844 78.029C211.853 78.029 211.862 78.0296 211.87 78.0296C211.879 78.0302 211.889 78.0302 211.897 78.0308C211.904 78.0308 211.917 78.0314 211.923 78.032C211.93 78.032 211.94 78.0326 211.947 78.0326C211.956 78.0332 211.965 78.0332 211.974 78.0338C211.98 78.0338 211.99 78.0345 211.997 78.0345C212.008 78.035 212.016 78.0357 212.027 78.0357C212.033 78.0363 212.039 78.0363 212.045 78.0369C212.056 78.0369 212.066 78.0375 212.077 78.0381C212.086 78.0381 212.093 78.0387 212.101 78.0393C212.112 78.0393 212.118 78.0399 212.129 78.0399C212.138 78.0405 212.144 78.0411 212.153 78.0411C212.161 78.0417 212.172 78.0417 212.18 78.0423C212.188 78.0429 212.193 78.0429 212.201 78.0435C212.212 78.0435 212.222 78.0441 212.232 78.0447C212.239 78.0447 212.244 78.0453 212.251 78.0453C212.261 78.0459 212.272 78.0466 212.282 78.0466C212.291 78.0471 212.301 78.0478 212.31 78.0478C212.365 78.0508 212.422 78.0532 212.477 78.0556C212.481 78.0562 212.484 78.0562 212.488 78.0562C212.502 78.0568 212.517 78.0574 212.532 78.0586C212.534 78.0586 212.536 78.0586 212.539 78.0586C212.551 78.0592 212.561 78.0599 212.574 78.0605C212.58 78.0605 212.584 78.0611 212.59 78.0611C212.605 78.0623 212.62 78.0629 212.636 78.0635H212.64C212.653 78.0641 212.663 78.0647 212.675 78.0653C212.682 78.0659 212.687 78.0659 212.693 78.0665C212.704 78.0671 212.714 78.0677 212.725 78.0677C212.732 78.0683 212.737 78.0689 212.744 78.0689C212.755 78.0695 212.766 78.0701 212.776 78.0707C212.783 78.0707 212.789 78.0714 212.795 78.0719C212.808 78.0726 212.817 78.0726 212.83 78.0738C212.834 78.0738 212.842 78.0744 212.846 78.0744C212.856 78.075 212.867 78.0756 212.877 78.0762C212.884 78.0762 212.892 78.0768 212.899 78.0774C212.907 78.0774 212.92 78.0786 212.928 78.0786C212.935 78.0792 212.942 78.0798 212.949 78.0798C212.96 78.0804 212.97 78.081 212.981 78.0816C212.987 78.0822 212.994 78.0822 213 78.0829C213.011 78.0835 213.023 78.0841 213.033 78.0847C213.04 78.0847 213.044 78.0853 213.051 78.0853C213.06 78.0859 213.072 78.0865 213.081 78.0871C213.089 78.0877 213.095 78.0883 213.104 78.0883C213.113 78.0889 213.121 78.0895 213.13 78.0901C213.138 78.0907 213.146 78.0907 213.155 78.0913C213.164 78.0919 213.175 78.0925 213.183 78.0931C213.191 78.0937 213.197 78.0937 213.205 78.0943C213.216 78.0949 213.226 78.0956 213.236 78.0962C213.243 78.0968 213.25 78.0968 213.256 78.0974C213.266 78.098 213.276 78.0986 213.286 78.0992C213.295 78.0998 213.3 78.0998 213.308 78.1004C213.319 78.101 213.327 78.1016 213.338 78.1022C213.345 78.1028 213.352 78.1034 213.358 78.1034C213.369 78.104 213.379 78.1046 213.39 78.1052C213.397 78.1058 213.403 78.1064 213.409 78.1064C213.42 78.1077 213.432 78.1082 213.443 78.1089C213.449 78.1095 213.453 78.1095 213.459 78.1101C213.47 78.1107 213.481 78.1113 213.491 78.1119C213.498 78.1125 213.507 78.1131 213.513 78.1131C213.524 78.1137 213.531 78.1143 213.541 78.1149C213.548 78.1155 213.557 78.1161 213.563 78.1167C213.574 78.1173 213.582 78.1173 213.592 78.1185C213.599 78.1185 213.609 78.1191 213.616 78.1197C213.623 78.1203 213.635 78.121 213.644 78.1216C213.651 78.1222 213.659 78.1228 213.665 78.1228C213.676 78.124 213.684 78.1246 213.695 78.1252C213.701 78.1252 213.711 78.1258 213.717 78.1264C213.726 78.127 213.737 78.1276 213.746 78.1282C213.754 78.1288 213.759 78.1294 213.767 78.13C213.776 78.1306 213.789 78.1312 213.798 78.1318C213.806 78.1324 213.81 78.1324 213.818 78.1331C213.827 78.1337 213.841 78.1349 213.849 78.1355C213.858 78.1361 213.861 78.1361 213.869 78.1367C213.877 78.1373 213.891 78.1385 213.899 78.1391C213.908 78.1397 213.913 78.1397 213.921 78.1403C213.929 78.1409 213.942 78.1421 213.951 78.1427C213.957 78.1427 213.965 78.1433 213.971 78.144C213.98 78.1446 213.993 78.1451 214.001 78.1458C214.008 78.1464 214.016 78.147 214.023 78.1476C214.033 78.1482 214.043 78.1488 214.053 78.15C214.06 78.15 214.066 78.1506 214.073 78.1512C214.084 78.1518 214.093 78.1524 214.104 78.1536C214.11 78.1536 214.118 78.1542 214.125 78.1548C214.135 78.1554 214.144 78.1561 214.155 78.1573C214.161 78.1579 214.168 78.1579 214.174 78.1585C214.185 78.1591 214.195 78.1603 214.206 78.1609C214.212 78.1615 214.22 78.1621 214.227 78.1621C214.237 78.1633 214.246 78.1639 214.257 78.1645C214.263 78.1651 214.271 78.1657 214.277 78.1663C214.288 78.1669 214.295 78.1675 214.306 78.1681C214.312 78.1687 214.325 78.17 214.331 78.17C214.339 78.1712 214.349 78.1718 214.357 78.1724C214.366 78.173 214.372 78.1736 214.381 78.1742C214.392 78.1748 214.398 78.1754 214.408 78.176C214.417 78.1766 214.423 78.1772 214.432 78.1778C214.442 78.179 214.45 78.1796 214.46 78.1802C214.469 78.1808 214.472 78.1808 214.481 78.1821C214.491 78.1827 214.501 78.1833 214.511 78.1845C214.519 78.1851 214.525 78.1851 214.533 78.1857C214.542 78.1869 214.553 78.1875 214.562 78.1881C214.568 78.1887 214.576 78.1893 214.582 78.1899C214.593 78.1905 214.603 78.1917 214.613 78.1923C214.62 78.1929 214.626 78.1935 214.633 78.1942C214.643 78.1947 214.654 78.1954 214.664 78.1966C214.671 78.1972 214.677 78.1978 214.684 78.1978C214.694 78.199 214.703 78.1996 214.714 78.2008C214.723 78.2014 214.729 78.202 214.738 78.2026C214.746 78.2032 214.756 78.2038 214.765 78.2044C214.771 78.205 214.781 78.2063 214.787 78.2068C214.796 78.2075 214.808 78.2081 214.816 78.2093C214.822 78.2093 214.83 78.2099 214.836 78.2105C214.847 78.2117 214.857 78.2123 214.868 78.2135C214.874 78.2141 214.878 78.2141 214.885 78.2147C214.897 78.2159 214.906 78.2165 214.919 78.2178C214.923 78.2178 214.929 78.2184 214.933 78.219C214.946 78.2202 214.957 78.2208 214.97 78.222C214.972 78.222 214.978 78.2226 214.98 78.2226C214.994 78.2244 215.006 78.225 215.021 78.2262C215.023 78.2268 215.026 78.2268 215.028 78.2268C215.06 78.2298 215.09 78.2323 215.122 78.2353C215.124 78.2353 215.13 78.2359 215.132 78.2359C215.145 78.2371 215.159 78.2383 215.172 78.2395C215.178 78.2401 215.185 78.2407 215.191 78.2413C215.202 78.2426 215.212 78.2431 215.223 78.2444C215.227 78.2444 215.231 78.245 215.236 78.2456C215.346 78.2552 215.458 78.2655 215.568 78.2764C215.573 78.2764 215.572 78.2764 215.576 78.277C215.591 78.2782 215.606 78.2801 215.621 78.2813C215.623 78.2813 215.624 78.2819 215.626 78.2819C215.66 78.2849 215.692 78.2879 215.726 78.2915H215.727C215.741 78.2928 215.754 78.294 215.769 78.2958C215.771 78.2958 215.776 78.2964 215.778 78.2964C215.793 78.2982 215.808 78.2994 215.823 78.3012C215.825 78.3012 215.825 78.3012 215.828 78.3012C215.844 78.303 215.858 78.3049 215.875 78.3061C215.877 78.3067 215.876 78.3061 215.878 78.3067C215.893 78.3079 215.907 78.3097 215.922 78.3109C215.924 78.3109 215.926 78.3115 215.929 78.3115C215.942 78.3127 215.954 78.3145 215.967 78.3158C215.971 78.3158 215.977 78.3163 215.981 78.317C215.991 78.3182 216.006 78.3194 216.016 78.3206C216.023 78.3212 216.024 78.3212 216.031 78.3218C216.043 78.3236 216.056 78.3248 216.069 78.326C216.073 78.3266 216.077 78.3266 216.081 78.3272C216.093 78.3284 216.106 78.3297 216.119 78.3309C216.123 78.3315 216.127 78.3321 216.131 78.3327C216.144 78.3339 216.156 78.3351 216.169 78.3363C216.173 78.3369 216.178 78.3375 216.182 78.3375C216.195 78.3393 216.207 78.3406 216.22 78.3418C216.224 78.3424 216.228 78.3424 216.232 78.343C216.245 78.3442 216.259 78.346 216.271 78.3472C216.275 78.3478 216.278 78.3478 216.282 78.3484C216.295 78.3496 216.309 78.3514 216.322 78.3526C216.326 78.3533 216.328 78.3533 216.332 78.3539C216.345 78.3551 216.358 78.3563 216.37 78.3581C216.375 78.3581 216.38 78.3587 216.384 78.3593C216.396 78.3605 216.408 78.3617 216.421 78.3629C216.425 78.3635 216.429 78.3641 216.433 78.3647C216.446 78.366 216.46 78.3678 216.473 78.369C216.477 78.3696 216.479 78.3696 216.484 78.3702C216.496 78.3714 216.51 78.3732 216.522 78.3744C216.527 78.375 216.53 78.375 216.534 78.3756C216.546 78.3768 216.56 78.3787 216.572 78.3799C216.577 78.3805 216.58 78.3805 216.585 78.3811C216.597 78.3829 216.61 78.3841 216.622 78.3853C216.626 78.3859 216.63 78.3865 216.634 78.3865C216.647 78.3884 216.662 78.3902 216.675 78.3914C216.677 78.3914 216.681 78.392 216.684 78.3926C216.696 78.3938 216.71 78.3956 216.723 78.3968C216.727 78.3974 216.731 78.3974 216.735 78.398C216.748 78.3998 216.761 78.401 216.773 78.4023C216.778 78.4029 216.782 78.4035 216.786 78.4041C216.798 78.4053 216.81 78.4065 216.822 78.4083C216.827 78.4089 216.832 78.4089 216.836 78.4095C216.848 78.4113 216.862 78.4125 216.874 78.4144C216.879 78.4144 216.881 78.415 216.885 78.4156C216.897 78.4168 216.912 78.4186 216.925 78.4198C216.929 78.4204 216.931 78.4204 216.935 78.421C216.947 78.4228 216.963 78.4246 216.976 78.4258C216.978 78.4265 216.982 78.4265 216.984 78.4271C216.997 78.4283 217.014 78.4307 217.026 78.4319C217.029 78.4319 217.032 78.4325 217.034 78.4325C217.049 78.4343 217.062 78.4361 217.077 78.4379C217.079 78.4379 217.081 78.4386 217.083 78.4386C217.098 78.4404 217.113 78.4422 217.127 78.444C217.13 78.444 217.131 78.4446 217.133 78.4446C217.147 78.4464 217.163 78.4482 217.177 78.45C217.18 78.45 217.181 78.4506 217.183 78.4506C217.197 78.4525 217.212 78.4543 217.226 78.4561C217.231 78.4561 217.23 78.4561 217.234 78.4567C217.249 78.4585 217.263 78.4603 217.278 78.4621L217.282 78.4628C217.299 78.4646 217.311 78.4664 217.328 78.4682C217.33 78.4688 217.33 78.4682 217.332 78.4688C217.349 78.4706 217.362 78.4724 217.378 78.4742C217.381 78.4749 217.379 78.4742 217.381 78.4749C217.398 78.4767 217.412 78.4785 217.428 78.4809C217.431 78.4809 217.428 78.4809 217.43 78.4809C217.48 78.4869 217.528 78.493 217.578 78.4996H217.58C237.794 81.0652 255.136 92.9632 265.138 109.728C261.35 114.198 256.704 121.441 255.359 122.689C254.781 123.227 252.432 123.411 249.486 123.411C243.08 123.411 233.85 122.541 233.85 122.541L233.885 123.216C232.951 122.557 231.585 121.686 230.884 121.686C230.867 121.686 230.852 121.687 230.836 121.688C229.743 121.757 226.671 122.096 226.193 122.814C225.715 123.532 224.964 126.331 225.647 126.604C225.715 126.631 225.792 126.644 225.875 126.644C226.289 126.644 226.859 126.324 227.278 125.841C226.77 127.843 226.745 130.469 228.741 130.94C229.472 131.111 230.192 131.179 230.867 131.179C232.305 131.179 233.545 130.877 234.277 130.649L234.322 131.519C234.322 131.519 234.335 131.52 234.36 131.521C235.056 131.559 245.36 132.111 252.256 132.111C252.256 132.111 252.256 132.111 252.257 132.111C255.317 132.111 257.703 132.002 258.282 131.692C258.284 131.69 258.286 131.69 258.287 131.689C258.29 131.687 258.294 131.686 258.296 131.684C259.46 131.019 264.047 127.366 267.25 124.778C267.652 128.51 268.342 133.289 268.681 138.292C268.68 138.292 268.679 138.292 268.679 138.291C268.844 140.731 268.927 143.222 268.852 145.672C268.851 145.674 268.851 145.675 268.851 145.677C268.85 145.695 268.85 145.713 268.85 145.731C268.849 145.735 268.849 145.739 268.849 145.743C268.849 145.759 268.848 145.775 268.847 145.79C268.847 145.807 268.847 145.822 268.846 145.839C268.846 145.847 268.846 145.853 268.845 145.861C268.845 145.875 268.844 145.888 268.844 145.903C268.844 145.908 268.843 145.914 268.843 145.919C268.843 145.934 268.842 145.948 268.841 145.963C268.841 145.967 268.841 145.971 268.841 145.975C268.841 145.991 268.84 146.007 268.839 146.023C268.839 146.025 268.839 146.027 268.839 146.029C268.835 146.137 268.831 146.243 268.826 146.351C268.826 146.354 268.826 146.357 268.826 146.36C268.825 146.376 268.824 146.39 268.824 146.406C268.824 146.41 268.823 146.415 268.823 146.42C268.823 146.434 268.822 146.447 268.821 146.461C268.821 146.469 268.821 146.476 268.82 146.484C268.819 146.496 268.819 146.507 268.818 146.519C268.818 146.538 268.816 146.557 268.816 146.576C268.821 146.586 268.827 146.596 268.833 146.605C268.844 146.623 268.855 146.642 268.865 146.659C268.827 146.788 268.787 146.925 268.745 147.071C268.744 147.073 268.744 147.074 268.744 147.076C268.742 147.082 268.74 147.089 268.738 147.095C267.267 152.184 263.272 167.45 260.253 183.131C248.354 198.146 229.962 207.796 209.362 207.796ZM209.586 193.686C207.647 193.686 206.076 195.258 206.076 197.197C206.076 199.135 207.647 200.707 209.586 200.707C211.524 200.707 213.096 199.135 213.096 197.197C213.096 195.258 211.524 193.686 209.586 193.686ZM182.783 186.66C181.557 186.66 180.366 187.304 179.722 188.449C178.771 190.139 179.37 192.279 181.059 193.23C181.603 193.537 182.194 193.682 182.777 193.682C184.004 193.682 185.195 193.038 185.84 191.893C186.791 190.203 186.192 188.063 184.503 187.112C183.958 186.805 183.367 186.66 182.783 186.66ZM237.369 186.095C236.762 186.095 236.147 186.252 235.586 186.583C233.917 187.568 233.363 189.721 234.349 191.39C235.004 192.5 236.173 193.117 237.375 193.117C237.981 193.117 238.597 192.959 239.157 192.628C240.826 191.642 241.38 189.49 240.395 187.821C239.739 186.711 238.57 186.095 237.369 186.095ZM162.565 166.89C161.957 166.89 161.34 167.048 160.779 167.381C159.111 168.369 158.56 170.522 159.548 172.19C160.203 173.297 161.372 173.912 162.572 173.912C163.18 173.912 163.796 173.754 164.357 173.421C166.025 172.433 166.576 170.28 165.588 168.612C164.933 167.505 163.765 166.89 162.565 166.89ZM257.174 165.91C255.949 165.91 254.759 166.552 254.113 167.694C253.161 169.383 253.756 171.524 255.444 172.477C255.99 172.785 256.583 172.932 257.168 172.932C258.392 172.932 259.582 172.29 260.228 171.147C261.18 169.458 260.585 167.317 258.896 166.364C258.351 166.056 257.758 165.91 257.174 165.91ZM204.163 142.1L190.06 151.99C188.419 153.141 189.173 157.046 189.173 157.046C189.173 157.046 192.42 158.024 193.747 158.024C193.969 158.024 194.138 157.997 194.228 157.933L208.331 148.044C208.671 148.112 209.014 148.145 209.356 148.145C211.192 148.145 212.975 147.181 213.94 145.467C215.364 142.937 214.468 139.732 211.938 138.308C211.523 138.075 211.09 137.904 210.649 137.792L192.191 105.132C191.499 103.907 189.343 103.725 188.118 103.725C187.598 103.725 187.245 103.757 187.245 103.757C187.245 103.757 184.885 106.958 185.871 108.703L204.33 141.364C204.256 141.607 204.2 141.853 204.163 142.1ZM264.234 139.037C262.295 139.037 260.724 140.61 260.724 142.548C260.724 144.487 262.295 146.059 264.234 146.059C266.173 146.059 267.744 144.487 267.744 142.548C267.744 140.61 266.173 139.037 264.234 139.037ZM154.937 139.037C152.999 139.037 151.427 140.61 151.427 142.548C151.427 144.487 152.999 146.059 154.937 146.059C156.876 146.059 158.448 144.487 158.448 142.548C158.448 140.61 156.876 139.037 154.937 139.037ZM162.004 112.165C160.779 112.165 159.59 112.807 158.944 113.95C157.991 115.638 158.586 117.779 160.275 118.733C160.82 119.04 161.413 119.187 161.998 119.187C163.223 119.187 164.413 118.545 165.057 117.402C166.011 115.714 165.415 113.573 163.727 112.619C163.182 112.311 162.589 112.165 162.004 112.165ZM256.6 111.185C255.992 111.185 255.375 111.343 254.815 111.675C253.147 112.664 252.596 114.817 253.583 116.485C254.239 117.592 255.407 118.207 256.606 118.207C257.215 118.207 257.831 118.048 258.393 117.716C260.061 116.728 260.612 114.575 259.624 112.906C258.967 111.8 257.799 111.185 256.6 111.185ZM181.797 91.9802C181.19 91.9802 180.575 92.1375 180.015 92.4684C178.346 93.4544 177.791 95.6068 178.777 97.2758C179.432 98.3853 180.602 99.0023 181.803 99.0023C182.41 99.0023 183.024 98.8445 183.584 98.5142C185.254 97.5281 185.808 95.3757 184.823 93.7061C184.168 92.5972 182.998 91.9802 181.797 91.9802ZM236.394 91.4146C235.167 91.4146 233.976 92.0588 233.332 93.204C232.38 94.893 232.979 97.0339 234.669 97.9848C235.213 98.2909 235.804 98.4367 236.387 98.4367C237.614 98.4367 238.805 97.7925 239.45 96.6473C240.401 94.9577 239.802 92.8174 238.113 91.8664C237.568 91.5597 236.977 91.4146 236.394 91.4146ZM209.586 84.39C207.647 84.39 206.076 85.9616 206.076 87.9004C206.076 89.8387 207.647 91.4103 209.586 91.4103C211.524 91.4103 213.096 89.8387 213.096 87.9004C213.096 85.9616 211.524 84.39 209.586 84.39Z" fill="#F8F5AF"/>
</g>
</svg>
