<svg id='dashboard' width="25" height="25" viewBox="0 0 25 25" fill="none" xmlns="http://www.w3.org/2000/svg">
<g clip-path="url(#clip0)">
<path d="M9.89583 8.33333H1.5625C0.701042 8.33333 0 7.63229 0 6.77083V1.5625C0 0.701042 0.701042 0 1.5625 0H9.89583C10.7573 0 11.4583 0.701042 11.4583 1.5625V6.77083C11.4583 7.63229 10.7573 8.33333 9.89583 8.33333ZM1.5625 1.04167C1.27604 1.04167 1.04167 1.275 1.04167 1.5625V6.77083C1.04167 7.05833 1.27604 7.29167 1.5625 7.29167H9.89583C10.1823 7.29167 10.4167 7.05833 10.4167 6.77083V1.5625C10.4167 1.275 10.1823 1.04167 9.89583 1.04167H1.5625Z" fill="white"/>
<path d="M9.89583 25H1.5625C0.701042 25 0 24.299 0 23.4375V11.9792C0 11.1177 0.701042 10.4167 1.5625 10.4167H9.89583C10.7573 10.4167 11.4583 11.1177 11.4583 11.9792V23.4375C11.4583 24.299 10.7573 25 9.89583 25ZM1.5625 11.4583C1.27604 11.4583 1.04167 11.6917 1.04167 11.9792V23.4375C1.04167 23.725 1.27604 23.9583 1.5625 23.9583H9.89583C10.1823 23.9583 10.4167 23.725 10.4167 23.4375V11.9792C10.4167 11.6917 10.1823 11.4583 9.89583 11.4583H1.5625Z" fill="white"/>
<path d="M23.4375 25H15.1042C14.2427 25 13.5417 24.299 13.5417 23.4375V18.2292C13.5417 17.3677 14.2427 16.6667 15.1042 16.6667H23.4375C24.2989 16.6667 25 17.3677 25 18.2292V23.4375C25 24.299 24.2989 25 23.4375 25ZM15.1042 17.7083C14.8177 17.7083 14.5833 17.9417 14.5833 18.2292V23.4375C14.5833 23.725 14.8177 23.9583 15.1042 23.9583H23.4375C23.7239 23.9583 23.9583 23.725 23.9583 23.4375V18.2292C23.9583 17.9417 23.7239 17.7083 23.4375 17.7083H15.1042Z" fill="white"/>
<mask id="path-4-inside-1" fill="white">
<path d="M23.4375 14.5833H15.1042C14.2427 14.5833 13.5417 13.8823 13.5417 13.0208V1.5625C13.5417 0.701042 14.2427 0 15.1042 0H23.4375C24.2989 0 25 0.701042 25 1.5625V13.0208C25 13.8823 24.2989 14.5833 23.4375 14.5833ZM15.1042 1.04167C14.8177 1.04167 14.5833 1.275 14.5833 1.5625V13.0208C14.5833 13.3083 14.8177 13.5417 15.1042 13.5417H23.4375C23.7239 13.5417 23.9583 13.3083 23.9583 13.0208V1.5625C23.9583 1.275 23.7239 1.04167 23.4375 1.04167H15.1042Z"/>
</mask>
<path d="M23.4375 14.5833H15.1042C14.2427 14.5833 13.5417 13.8823 13.5417 13.0208V1.5625C13.5417 0.701042 14.2427 0 15.1042 0H23.4375C24.2989 0 25 0.701042 25 1.5625V13.0208C25 13.8823 24.2989 14.5833 23.4375 14.5833ZM15.1042 1.04167C14.8177 1.04167 14.5833 1.275 14.5833 1.5625V13.0208C14.5833 13.3083 14.8177 13.5417 15.1042 13.5417H23.4375C23.7239 13.5417 23.9583 13.3083 23.9583 13.0208V1.5625C23.9583 1.275 23.7239 1.04167 23.4375 1.04167H15.1042Z" fill="white"/>
<path d="M23.4375 9.58333H15.1042V19.5833H23.4375V9.58333ZM15.1042 9.58333C17.0041 9.58333 18.5417 11.1209 18.5417 13.0208H8.54166C8.54166 16.6437 11.4813 19.5833 15.1042 19.5833V9.58333ZM18.5417 13.0208V1.5625H8.54166V13.0208H18.5417ZM18.5417 1.5625C18.5417 3.46246 17.0041 5 15.1042 5V-5C11.4813 -5 8.54166 -2.06038 8.54166 1.5625H18.5417ZM15.1042 5H23.4375V-5H15.1042V5ZM23.4375 5C21.5375 5 20 3.46246 20 1.5625H30C30 -2.06038 27.0604 -5 23.4375 -5V5ZM20 1.5625V13.0208H30V1.5625H20ZM20 13.0208C20 11.1209 21.5375 9.58333 23.4375 9.58333V19.5833C27.0604 19.5833 30 16.6437 30 13.0208H20ZM15.1042 -3.95833C12.0628 -3.95833 9.58332 -1.49293 9.58332 1.5625H19.5833C19.5833 4.04293 17.5726 6.04167 15.1042 6.04167V-3.95833ZM9.58332 1.5625V13.0208H19.5833V1.5625H9.58332ZM9.58332 13.0208C9.58332 16.0763 12.0628 18.5417 15.1042 18.5417V8.54167C17.5726 8.54167 19.5833 10.5404 19.5833 13.0208H9.58332ZM15.1042 18.5417H23.4375V8.54167H15.1042V18.5417ZM23.4375 18.5417C26.4789 18.5417 28.9583 16.0763 28.9583 13.0208H18.9583C18.9583 10.5404 20.969 8.54167 23.4375 8.54167V18.5417ZM28.9583 13.0208V1.5625H18.9583V13.0208H28.9583ZM28.9583 1.5625C28.9583 -1.49293 26.4789 -3.95833 23.4375 -3.95833V6.04167C20.969 6.04167 18.9583 4.04293 18.9583 1.5625H28.9583ZM23.4375 -3.95833H15.1042V6.04167H23.4375V-3.95833Z" fill="white" mask="url(#path-4-inside-1)"/>
</g>
<defs>
<clipPath id="clip0">
<rect width="25" height="25" fill="white"/>
</clipPath>
</defs>
</svg>
