<svg id='favorite' width="19" height="28" viewBox="0 0 19 28" fill="none" xmlns="http://www.w3.org/2000/svg">
<path d="M2.67606 27.511C1.988 27.511 1.33322 27.2499 0.832426 26.776C0.573777 26.5312 0.370013 26.2424 0.226739 25.9176C0.0763091 25.5766 0 25.2129 0 24.8366V2.6731C0 1.19916 1.19916 0 2.6731 0H15.4503C16.9243 0 18.1234 1.19916 18.1234 2.6731V24.8365C18.1234 25.2129 18.0471 25.5765 17.8966 25.9176C17.7534 26.2423 17.5497 26.531 17.291 26.7759C16.7902 27.2499 16.1354 27.5109 15.4474 27.5109C14.859 27.5109 14.2989 27.3208 13.8278 26.961L9.06173 23.3207L4.2956 26.961C3.82439 27.3208 3.26438 27.511 2.67606 27.511ZM2.6731 0.0455849C1.22427 0.0455849 0.0455849 1.22427 0.0455849 2.6731V24.8366C0.0455849 25.2065 0.120572 25.5641 0.268449 25.8992C0.409261 26.2184 0.609561 26.5022 0.863788 26.7429C1.35611 27.2089 1.99972 27.4655 2.67611 27.4655C3.25435 27.4655 3.80479 27.2785 4.26798 26.9248L9.06178 23.2634L9.07563 23.2739L13.8555 26.9248C14.3186 27.2785 14.8691 27.4654 15.4474 27.4654C16.1238 27.4654 16.7674 27.2088 17.2598 26.7428C17.514 26.5021 17.7143 26.2183 17.8551 25.8992C18.0029 25.564 18.0779 25.2065 18.0779 24.8365V2.6731C18.0779 1.22427 16.8992 0.0455849 15.4504 0.0455849H2.6731ZM15.4474 25.5581C15.2911 25.5581 15.141 25.5066 15.0132 25.409L9.47126 21.1762C9.35261 21.0856 9.21102 21.0377 9.06178 21.0377C8.91253 21.0377 8.7709 21.0856 8.65229 21.1762L3.11035 25.409C2.98267 25.5066 2.83251 25.5581 2.67615 25.5581C2.32834 25.5581 1.95295 25.2822 1.95295 24.8366V2.6731C1.95295 2.27596 2.27605 1.95286 2.67319 1.95286H15.4505C15.8476 1.95286 16.1707 2.27596 16.1707 2.6731V24.8366C16.1706 25.2822 15.7952 25.5581 15.4474 25.5581ZM9.06173 20.9921C9.22105 20.9921 9.37225 21.0432 9.49893 21.1399L15.0409 25.3727C15.1607 25.4642 15.3012 25.5125 15.4474 25.5125C15.7733 25.5125 16.125 25.254 16.125 24.8365V2.6731C16.125 2.30108 15.8223 1.99844 15.4504 1.99844H2.6731C2.30108 1.99844 1.99844 2.30108 1.99844 2.6731V24.8366C1.99844 25.2541 2.35018 25.5125 2.67606 25.5125C2.8223 25.5125 2.96288 25.4641 3.08259 25.3727L8.62453 21.1399C8.75121 21.0432 8.90237 20.9921 9.06173 20.9921Z" fill="#8E8E8E"/>
<path d="M0.0242615 2.67458V24.838C0.0242615 25.2112 0.0998868 25.5718 0.249041 25.9099C0.391083 26.2319 0.593115 26.5182 0.84953 26.7609C1.34613 27.2309 1.99531 27.4897 2.67753 27.4897C3.26088 27.4897 3.8161 27.301 4.28321 26.9443L9.0632 23.2935L13.8431 26.9443C14.3102 27.301 14.8655 27.4896 15.4488 27.4896C16.1311 27.4896 16.7803 27.2308 17.2769 26.7608C17.5332 26.5182 17.7353 26.2319 17.8773 25.9099C18.0265 25.5718 18.1021 25.2112 18.1021 24.838V2.67458C18.1021 1.21318 16.9132 0.0242767 15.4518 0.0242767H2.67457C1.21316 0.0242767 0.0242615 1.21322 0.0242615 2.67458ZM16.1493 2.67458V24.838C16.1493 25.2515 15.81 25.5368 15.4489 25.5368C15.3055 25.5368 15.1589 25.4919 15.0285 25.3924L9.48654 21.1595C9.36155 21.0641 9.2124 21.0163 9.0632 21.0163C8.914 21.0163 8.76484 21.0641 8.63985 21.1595L3.09791 25.3923C2.96759 25.4919 2.8208 25.5368 2.67753 25.5368C2.31636 25.5368 1.97712 25.2515 1.97712 24.838V2.67458C1.97712 2.28939 2.28937 1.97713 2.67457 1.97713H15.4518C15.837 1.97713 16.1493 2.28939 16.1493 2.67458Z" fill="#8E8E8E"/>
<path d="M4.62006 6.62678H13.4869" stroke="#8E8E8E" stroke-width="2"/>
</svg>
