<svg id='location' width="13" height="16" viewBox="0 0 13 16" fill="none" xmlns="http://www.w3.org/2000/svg">
<path d="M11.0962 1.90381C9.86853 0.676116 8.23621 0 6.50002 0C4.76382 0 3.13147 0.676116 1.90381 1.90381C0.676116 3.13153 0 4.76382 0 6.49998C0 10.0122 3.32094 12.9336 5.10507 14.503C5.353 14.7211 5.56711 14.9095 5.73769 15.0688C5.95141 15.2684 6.22573 15.3682 6.49998 15.3682C6.7743 15.3682 7.04856 15.2684 7.26231 15.0688C7.43289 14.9094 7.647 14.7211 7.89493 14.503C9.67906 12.9335 13 10.0122 13 6.49998C13 4.76382 12.3239 3.13153 11.0962 1.90381ZM7.30031 13.8271C7.04694 14.05 6.82815 14.2425 6.64776 14.4109C6.56488 14.4883 6.43509 14.4883 6.35219 14.4109C6.17182 14.2424 5.953 14.0499 5.69963 13.8271C4.02233 12.3516 0.900187 9.60516 0.900187 6.50001C0.900187 3.41231 3.41221 0.900277 6.49995 0.900277C9.58766 0.900277 12.0997 3.41231 12.0997 6.50001C12.0997 9.60516 8.97761 12.3516 7.30031 13.8271Z" fill="white"/>
<path d="M6.50002 3.38997C4.92053 3.38997 3.63554 4.67493 3.63554 6.25442C3.63554 7.8339 4.92053 9.11887 6.50002 9.11887C8.0795 9.11887 9.36446 7.8339 9.36446 6.25442C9.36446 4.67493 8.0795 3.38997 6.50002 3.38997ZM6.50002 8.21859C5.41694 8.21859 4.53578 7.33743 4.53578 6.25439C4.53578 5.17134 5.41694 4.29019 6.50002 4.29019C7.58309 4.29019 8.46422 5.17134 8.46422 6.25439C8.46422 7.33743 7.58309 8.21859 6.50002 8.21859Z" fill="white"/>
</svg>
