<svg id='ls' width="160" height="61" viewBox="0 0 160 61" fill="none" xmlns="http://www.w3.org/2000/svg">
<path d="M12.28 47.2C11.48 47.2 10.84 46.9733 10.36 46.52C9.90667 46.04 9.68 45.4133 9.68 44.64V23.04H2.4C0.8 23.04 0 22.3333 0 20.92C0 19.5067 0.8 18.8 2.4 18.8H22.12C23.72 18.8 24.52 19.5067 24.52 20.92C24.52 22.3333 23.72 23.04 22.12 23.04H14.84V44.64C14.84 45.4133 14.6 46.04 14.12 46.52C13.6667 46.9733 13.0533 47.2 12.28 47.2ZM34.9263 27.04C35.6196 26.9867 36.1663 27.1333 36.5663 27.48C36.9663 27.8267 37.1663 28.3467 37.1663 29.04C37.1663 29.76 36.9929 30.2933 36.6463 30.64C36.2996 30.9867 35.6729 31.2133 34.7663 31.32L33.5663 31.44C31.9929 31.6 30.8329 32.1333 30.0863 33.04C29.3663 33.9467 29.0063 35.08 29.0063 36.44V44.84C29.0063 45.6133 28.7663 46.2133 28.2863 46.64C27.8063 47.04 27.2063 47.24 26.4863 47.24C25.7663 47.24 25.1663 47.04 24.6863 46.64C24.2329 46.2133 24.0063 45.6133 24.0063 44.84V29.36C24.0063 28.6133 24.2329 28.04 24.6863 27.64C25.1663 27.24 25.7529 27.04 26.4463 27.04C27.1396 27.04 27.6996 27.24 28.1263 27.64C28.5529 28.0133 28.7663 28.56 28.7663 29.28V30.88C29.2729 29.7067 30.0196 28.8 31.0063 28.16C32.0196 27.52 33.1396 27.16 34.3663 27.08L34.9263 27.04ZM47.7206 26.96C50.4406 26.96 52.454 27.64 53.7606 29C55.094 30.3333 55.7606 32.3733 55.7606 35.12V44.88C55.7606 45.6 55.5473 46.1733 55.1206 46.6C54.694 47 54.1073 47.2 53.3606 47.2C52.6673 47.2 52.094 46.9867 51.6406 46.56C51.214 46.1333 51.0006 45.5733 51.0006 44.88V44C50.5473 45.04 49.8273 45.8533 48.8406 46.44C47.8806 47.0267 46.7606 47.32 45.4806 47.32C44.174 47.32 42.9873 47.0533 41.9206 46.52C40.854 45.9867 40.014 45.2533 39.4006 44.32C38.7873 43.3867 38.4806 42.3467 38.4806 41.2C38.4806 39.76 38.8406 38.6267 39.5606 37.8C40.3073 36.9733 41.5073 36.3733 43.1606 36C44.814 35.6267 47.094 35.44 50.0006 35.44H51.0006V34.52C51.0006 33.2133 50.7206 32.2667 50.1606 31.68C49.6006 31.0667 48.694 30.76 47.4406 30.76C46.6673 30.76 45.8806 30.88 45.0806 31.12C44.2806 31.3333 43.334 31.6533 42.2406 32.08C41.5473 32.4267 41.0406 32.6 40.7206 32.6C40.2406 32.6 39.8406 32.4267 39.5206 32.08C39.2273 31.7333 39.0806 31.28 39.0806 30.72C39.0806 30.2667 39.1873 29.88 39.4006 29.56C39.6406 29.2133 40.0273 28.8933 40.5606 28.6C41.494 28.0933 42.6006 27.6933 43.8806 27.4C45.1873 27.1067 46.4673 26.96 47.7206 26.96ZM46.4806 43.72C47.814 43.72 48.894 43.28 49.7206 42.4C50.574 41.4933 51.0006 40.3333 51.0006 38.92V38.08H50.2806C48.494 38.08 47.1073 38.16 46.1206 38.32C45.134 38.48 44.4273 38.76 44.0006 39.16C43.574 39.56 43.3606 40.1067 43.3606 40.8C43.3606 41.6533 43.654 42.36 44.2406 42.92C44.854 43.4533 45.6006 43.72 46.4806 43.72ZM74.4822 28.48C74.6955 28 74.9755 27.64 75.3222 27.4C75.6955 27.16 76.0955 27.04 76.5222 27.04C77.1355 27.04 77.6822 27.2533 78.1622 27.68C78.6689 28.08 78.9222 28.5867 78.9222 29.2C78.9222 29.52 78.8422 29.84 78.6822 30.16L71.2822 45.64C71.0422 46.1467 70.6955 46.5333 70.2422 46.8C69.8155 47.0667 69.3355 47.2 68.8022 47.2C68.2955 47.2 67.8022 47.0667 67.3222 46.8C66.8689 46.5333 66.5222 46.1467 66.2822 45.64L58.8422 30.16C58.7089 29.8933 58.6422 29.5867 58.6422 29.24C58.6422 28.6267 58.8955 28.1067 59.4022 27.68C59.9355 27.2533 60.5355 27.04 61.2022 27.04C62.1622 27.04 62.8689 27.5067 63.3222 28.44L68.9222 40.8L74.4822 28.48ZM85.0409 47.24C84.3209 47.24 83.7209 47.04 83.2409 46.64C82.7876 46.2133 82.5609 45.6133 82.5609 44.84V29.4C82.5609 28.6267 82.7876 28.04 83.2409 27.64C83.7209 27.24 84.3209 27.04 85.0409 27.04C85.7609 27.04 86.3609 27.24 86.8409 27.64C87.3209 28.04 87.5609 28.6267 87.5609 29.4V44.84C87.5609 45.6133 87.3209 46.2133 86.8409 46.64C86.3609 47.04 85.7609 47.24 85.0409 47.24ZM85.0409 23.48C84.1343 23.48 83.4143 23.24 82.8809 22.76C82.3476 22.2533 82.0809 21.6 82.0809 20.8C82.0809 20 82.3476 19.36 82.8809 18.88C83.4143 18.4 84.1343 18.16 85.0409 18.16C85.9209 18.16 86.6276 18.4 87.1609 18.88C87.7209 19.36 88.0009 20 88.0009 20.8C88.0009 21.6 87.7343 22.2533 87.2009 22.76C86.6676 23.24 85.9476 23.48 85.0409 23.48ZM109.277 27.04C110.024 27.04 110.624 27.2533 111.077 27.68C111.531 28.1067 111.757 28.68 111.757 29.4V45.2C111.757 48.2667 110.904 50.5867 109.197 52.16C107.491 53.7333 104.971 54.52 101.637 54.52C98.7305 54.52 96.3039 53.9733 94.3572 52.88C93.3705 52.2933 92.8772 51.5867 92.8772 50.76C92.8772 50.1733 93.0105 49.7067 93.2772 49.36C93.5705 49.0133 93.9439 48.84 94.3972 48.84C94.6372 48.84 94.9305 48.8933 95.2772 49C95.6239 49.1333 95.9839 49.28 96.3572 49.44C97.3172 49.84 98.1705 50.1467 98.9172 50.36C99.6905 50.5733 100.571 50.68 101.557 50.68C105.051 50.68 106.797 48.9733 106.797 45.56V43C106.211 44.0933 105.357 44.9467 104.237 45.56C103.117 46.1467 101.837 46.44 100.397 46.44C98.6905 46.44 97.1705 46.04 95.8372 45.24C94.5305 44.4133 93.5039 43.2667 92.7572 41.8C92.0105 40.3333 91.6372 38.64 91.6372 36.72C91.6372 34.8 91.9972 33.1067 92.7172 31.64C93.4639 30.1467 94.5039 29 95.8372 28.2C97.1705 27.3733 98.6905 26.96 100.397 26.96C101.837 26.96 103.117 27.2667 104.237 27.88C105.357 28.4667 106.211 29.3067 106.797 30.4V29.36C106.797 28.6667 107.024 28.1067 107.477 27.68C107.931 27.2533 108.531 27.04 109.277 27.04ZM101.717 42.56C103.317 42.56 104.557 42.04 105.437 41C106.344 39.96 106.797 38.5333 106.797 36.72C106.797 34.88 106.344 33.44 105.437 32.4C104.557 31.36 103.317 30.84 101.717 30.84C100.144 30.84 98.9039 31.36 97.9972 32.4C97.0905 33.44 96.6372 34.88 96.6372 36.72C96.6372 38.5333 97.0905 39.96 97.9972 41C98.9039 42.04 100.144 42.56 101.717 42.56ZM125.856 47.32C123.856 47.32 122.096 46.9067 120.576 46.08C119.083 45.2533 117.923 44.0667 117.096 42.52C116.269 40.9733 115.856 39.1733 115.856 37.12C115.856 35.0667 116.269 33.28 117.096 31.76C117.923 30.2133 119.083 29.0267 120.576 28.2C122.096 27.3733 123.856 26.96 125.856 26.96C127.856 26.96 129.603 27.3733 131.096 28.2C132.616 29.0267 133.776 30.2133 134.576 31.76C135.403 33.28 135.816 35.0667 135.816 37.12C135.816 39.1733 135.403 40.9733 134.576 42.52C133.776 44.0667 132.616 45.2533 131.096 46.08C129.603 46.9067 127.856 47.32 125.856 47.32ZM125.816 43.44C127.443 43.44 128.683 42.9067 129.536 41.84C130.389 40.7733 130.816 39.2 130.816 37.12C130.816 35.0667 130.389 33.5067 129.536 32.44C128.683 31.3467 127.456 30.8 125.856 30.8C124.256 30.8 123.016 31.3467 122.136 32.44C121.283 33.5067 120.856 35.0667 120.856 37.12C120.856 39.2 121.283 40.7733 122.136 41.84C122.989 42.9067 124.216 43.44 125.816 43.44Z" fill="black"/>
<path d="M126.845 15.0527C126.37 15.1805 126.148 15.4023 126.173 15.6571C126.229 16.2481 127.741 16.6608 128.678 16.9076L136.082 18.8554C137.019 19.1023 138.519 19.6914 139.278 20.3944C139.354 20.4644 139.428 20.5362 139.502 20.6091C140.237 21.3365 140.886 22.8092 141.169 23.7342L143.337 30.8421C143.62 31.7671 144.096 33.2571 144.695 33.2935C144.956 33.3096 145.175 33.0813 145.291 32.6053L150.721 10.2387C150.952 9.28679 150.369 8.72236 149.419 8.97798L126.845 15.0527Z" fill="#57CEA0"/>
</svg>
