<svg id="message" width="26" height="21" viewBox="0 0 26 21" fill="none" xmlns="http://www.w3.org/2000/svg">
<path d="M19.9062 21H6.09375C2.73366 21 0 18.2018 0 14.7624V6.23762C0 2.7982 2.73366 0 6.09375 0H19.9062C23.2663 0 26 2.7982 26 6.23762V14.7624C26 18.2018 23.2663 21 19.9062 21ZM6.09375 2.07921C3.85369 2.07921 2.03125 3.94467 2.03125 6.23762V14.7624C2.03125 17.0553 3.85369 18.9208 6.09375 18.9208H19.9062C22.1463 18.9208 23.9688 17.0553 23.9688 14.7624V6.23762C23.9688 3.94467 22.1463 2.07921 19.9062 2.07921H6.09375ZM16.7216 12.3404L21.7415 8.41528C22.1873 8.06675 22.2726 7.41435 21.9321 6.95807C21.5916 6.50179 20.9543 6.41446 20.5085 6.76299L15.4891 10.6876C14.0398 11.8192 12.0157 11.82 10.5654 10.6905L5.70152 6.82032C5.25865 6.4679 4.62053 6.54976 4.27634 7.00308C3.93209 7.4564 4.01202 8.10953 4.45489 8.46191L9.32252 12.3351C9.32496 12.337 9.32745 12.339 9.32994 12.3409C10.4179 13.1902 11.7214 13.6149 13.0253 13.6149C14.3291 13.6149 15.6333 13.19 16.7216 12.3404Z" fill="#8E8E8E"/>
</svg>
