<svg id='notification' width="39" height="43" viewBox="0 0 39 43" fill="none" xmlns="http://www.w3.org/2000/svg">
<path d="M28.6627 32.1797C27.7175 30.7693 26.4241 28.8379 26.4241 23.3408V20.8635C26.4241 15.6371 22.9353 11.2154 18.1665 9.78996V9.30303C18.1665 7.48132 16.6845 6 14.8636 6C13.0427 6 11.5606 7.48132 11.5606 9.30303V9.78996C6.79193 11.2154 3.30303 15.6371 3.30303 20.8635V23.3408C3.30303 28.8379 2.00959 30.7693 1.06444 32.1797C0.517668 32.9966 0 33.7683 0 34.9013C0 37.5933 5.61214 38.538 10.1622 38.8634C10.8002 40.9058 12.6729 42.333 14.8635 42.333C17.0541 42.333 18.9268 40.9058 19.5648 38.8634C24.1149 38.538 29.727 37.5933 29.727 34.9013C29.7271 33.7683 29.2094 32.9966 28.6627 32.1797ZM13.212 9.30303C13.212 8.39264 13.9524 7.65155 14.8635 7.65155C15.7747 7.65155 16.5151 8.39256 16.5151 9.30303V9.43494C15.9742 9.35706 15.4257 9.30303 14.8636 9.30303C14.3015 9.30303 13.753 9.35706 13.2121 9.43494V9.30303H13.212ZM14.8636 40.6815C13.6293 40.6815 12.5453 40.0004 11.9822 38.967C13.1523 39.0164 14.1683 39.0301 14.8636 39.0301C15.559 39.0301 16.575 39.0164 17.7452 38.967C17.182 40.0004 16.0979 40.6815 14.8636 40.6815ZM14.8636 37.3785C7.30116 37.3785 1.65155 36.0705 1.65155 34.9013C1.65155 34.2973 1.9064 33.89 2.437 33.099C3.4385 31.6023 4.95458 29.3404 4.95458 23.3408V20.8635C4.95458 15.3994 9.39947 10.9545 14.8636 10.9545C20.3277 10.9545 24.7726 15.3994 24.7726 20.8635V23.3408C24.7726 29.3404 26.2886 31.6023 27.2902 33.099C27.8208 33.8901 28.0756 34.2973 28.0756 34.9013C28.0756 36.0706 22.4259 37.3785 14.8636 37.3785Z" fill="black"/>
<circle cx="27" cy="12" r="12" fill="#FF7A00"/>
<path d="M28.055 10.235C28.715 10.235 29.295 10.38 29.795 10.67C30.305 10.95 30.7 11.345 30.98 11.855C31.26 12.365 31.4 12.95 31.4 13.61C31.4 14.3 31.24 14.91 30.92 15.44C30.61 15.97 30.165 16.385 29.585 16.685C29.015 16.975 28.355 17.12 27.605 17.12C26.985 17.12 26.375 17.02 25.775 16.82C25.185 16.61 24.68 16.33 24.26 15.98C24.03 15.78 23.915 15.545 23.915 15.275C23.915 15.055 23.975 14.87 24.095 14.72C24.225 14.56 24.375 14.48 24.545 14.48C24.645 14.48 24.74 14.5 24.83 14.54C24.92 14.57 25.025 14.625 25.145 14.705C25.545 14.985 25.935 15.2 26.315 15.35C26.695 15.5 27.1 15.575 27.53 15.575C28.19 15.575 28.695 15.41 29.045 15.08C29.395 14.75 29.57 14.28 29.57 13.67C29.57 13.08 29.39 12.615 29.03 12.275C28.68 11.925 28.195 11.75 27.575 11.75C27.185 11.75 26.835 11.805 26.525 11.915C26.225 12.025 25.915 12.21 25.595 12.47C25.405 12.6 25.21 12.665 25.01 12.665C24.81 12.665 24.64 12.605 24.5 12.485C24.36 12.365 24.29 12.205 24.29 12.005V7.325C24.29 7.045 24.37 6.825 24.53 6.665C24.69 6.505 24.915 6.425 25.205 6.425H30.2C30.8 6.425 31.1 6.675 31.1 7.175C31.1 7.675 30.8 7.925 30.2 7.925H26.18V10.775C26.69 10.415 27.315 10.235 28.055 10.235Z" fill="white"/>
</svg>
