<svg width="21" height="21" viewBox="0 0 21 21" fill="none" xmlns="http://www.w3.org/2000/svg">
<path d="M9.72493 0C4.36266 0 0 4.35073 0 9.6984C0 15.0461 4.3627 19.3968 9.72493 19.3968C15.0872 19.3968 19.4499 15.0461 19.4499 9.6984C19.4499 4.35073 15.0872 0 9.72493 0ZM9.72493 17.8025C5.24162 17.8025 1.59425 14.1668 1.59425 9.69836C1.59425 5.22965 5.24162 1.59421 9.72493 1.59421C14.2082 1.59421 17.8556 5.22965 17.8556 9.69836C17.8557 14.1668 14.2083 17.8025 9.72493 17.8025Z" fill="#8E8E8E"/>
<path d="M20.8066 19.873L16.4966 15.5849C16.2396 15.3293 15.8241 15.3304 15.5683 15.5873C15.3128 15.8444 15.3139 16.2598 15.5707 16.5156L19.8808 20.8037C20.009 20.931 20.1761 20.9947 20.3437 20.9947C20.5124 20.9947 20.6808 20.9302 20.8091 20.8013C21.0646 20.5442 21.0635 20.1287 20.8066 19.873Z" fill="#8E8E8E"/>
</svg>
