<svg id='tickets' width="26" height="22" viewBox="0 0 26 22" fill="none" xmlns="http://www.w3.org/2000/svg">
<path d="M22.7534 21.1611H2.64575C1.18741 21.1611 0 19.9737 0 18.5154V16.3988C0 16.1067 0.237059 15.8696 0.52915 15.8696H1.0583C2.2256 15.8696 3.1749 14.9204 3.1749 13.753C3.1749 12.5857 2.2256 11.6365 1.0583 11.6365H0.52915C0.237059 11.6365 0 11.3994 0 11.1073V8.9907C0 7.53237 1.18741 6.34496 2.64575 6.34496H22.7534C24.2118 6.34496 25.3992 7.53237 25.3992 8.9907V11.1073C25.3992 11.3994 25.1621 11.6365 24.87 11.6365H24.3409C23.1736 11.6365 22.2243 12.5857 22.2243 13.753C22.2243 14.3182 22.4444 14.8494 22.8444 15.2495C23.2434 15.6495 23.7747 15.8696 24.3398 15.8696H24.869C25.1611 15.8696 25.3981 16.1067 25.3981 16.3988V18.5154C25.3992 19.9737 24.2118 21.1611 22.7534 21.1611ZM1.0583 16.9279V18.5154C1.0583 19.3906 1.77053 20.1028 2.64575 20.1028H22.7534C23.6286 20.1028 24.3409 19.3906 24.3409 18.5154V16.9279H24.3398C23.4921 16.9279 22.6952 16.5978 22.0962 15.9988C21.4962 15.3987 21.166 14.6007 21.166 13.753C21.166 12.0026 22.5905 10.5782 24.3409 10.5782V8.9907C24.3409 8.11549 23.6286 7.40325 22.7534 7.40325H2.64575C1.77053 7.40325 1.0583 8.11549 1.0583 8.9907V10.5782C2.80873 10.5782 4.2332 12.0026 4.2332 13.753C4.2332 15.5035 2.80873 16.9279 1.0583 16.9279Z" fill="#8E8E8E"/>
<path d="M8.99552 8.46155C8.70343 8.46155 8.46637 8.22449 8.46637 7.9324V6.87411C8.46637 6.58201 8.70343 6.34496 8.99552 6.34496C9.28761 6.34496 9.52467 6.58201 9.52467 6.87411V7.9324C9.52467 8.22449 9.28761 8.46155 8.99552 8.46155Z" fill="#8E8E8E"/>
<path d="M8.99552 17.4158C8.70343 17.4158 8.46637 17.1788 8.46637 16.8867V15.0971C8.46637 14.805 8.70343 14.5679 8.99552 14.5679C9.28761 14.5679 9.52467 14.8039 9.52467 15.0971V16.8877C9.52467 17.1798 9.28761 17.4158 8.99552 17.4158ZM8.99552 12.9392C8.70343 12.9392 8.46637 12.7022 8.46637 12.4101V10.6194C8.46637 10.3273 8.70343 10.0903 8.99552 10.0903C9.28761 10.0903 9.52467 10.3273 9.52467 10.6194V12.4101C9.52467 12.7022 9.28761 12.9392 8.99552 12.9392Z" fill="#8E8E8E"/>
<path d="M8.99552 21.1612C8.70343 21.1612 8.46637 20.9241 8.46637 20.632V19.5737C8.46637 19.2816 8.70343 19.0446 8.99552 19.0446C9.28761 19.0446 9.52467 19.2816 9.52467 19.5737V20.632C9.52467 20.9241 9.28761 21.1612 8.99552 21.1612Z" fill="#8E8E8E"/>
<path d="M2.64574 7.40326C2.43091 7.40326 2.22877 7.27203 2.15046 7.05931C2.04781 6.78521 2.18644 6.48042 2.46054 6.37883L19.2875 0.095705C20.1056 -0.211202 21.0665 0.2481 21.3459 1.07251L23.254 6.70372C23.3471 6.981 23.199 7.2805 22.9228 7.37469C22.6487 7.46887 22.346 7.31965 22.2518 7.04344L20.3437 1.41223C20.2505 1.13707 19.9309 0.986793 19.6568 1.08627L2.82989 7.36939C2.76957 7.39268 2.70713 7.40326 2.64574 7.40326V7.40326Z" fill="#8E8E8E"/>
</svg>
