<svg id="transaction" width="27" height="27" viewBox="0 0 27 27" fill="none" xmlns="http://www.w3.org/2000/svg">
<path d="M25.418 14.5535H24.8906V10.8621C24.8906 9.40684 23.8687 8.18656 22.505 7.87902L20.1048 3.72176C19.7531 3.11251 19.1851 2.67667 18.5055 2.49457C18.0257 2.36606 17.531 2.3755 17.067 2.51556L15.3217 0.770212C14.2947 -0.256685 12.6239 -0.25679 11.5969 0.770212L4.56369 7.8035H3.05859C1.3721 7.8035 0 9.1756 0 10.8621V23.9402C0 25.6267 1.3721 26.9988 3.05859 26.9988H10.0723C10.3635 26.9988 10.5996 26.7627 10.5996 26.4715C10.5996 26.1803 10.3635 25.9441 10.0723 25.9441H3.05859C1.95365 25.9441 1.05469 25.0452 1.05469 23.9402V10.8621C1.05469 9.75715 1.95365 8.85819 3.05859 8.85819H21.832C22.937 8.85819 23.8359 9.75715 23.8359 10.8621V14.5535H19.9336C18.3634 14.5535 17.0859 15.831 17.0859 17.4012C17.0859 18.9713 18.3634 20.2488 19.9336 20.2488H23.8359V23.9402C23.8359 25.0452 22.937 25.9441 21.832 25.9441H14.8184C14.5272 25.9441 14.291 26.1803 14.291 26.4715C14.291 26.7627 14.5272 26.9988 14.8184 26.9988H21.832C23.5185 26.9988 24.8906 25.6267 24.8906 23.9402V20.2488H25.418C26.2903 20.2488 27 19.5391 27 18.6668V16.1355C27 15.2633 26.2903 14.5535 25.418 14.5535ZM18.2326 3.51335C18.64 3.62251 18.9806 3.88381 19.1915 4.2491L21.2436 7.8035H9.87678L17.0343 3.67108C17.3995 3.46025 17.825 3.40414 18.2326 3.51335ZM12.3427 1.51603C12.6409 1.21777 13.0375 1.0535 13.4593 1.0535C13.8811 1.0535 14.2777 1.21777 14.5759 1.51603L16.07 3.01005L7.76746 7.8035H6.05528L12.3427 1.51603ZM25.9453 18.6668C25.9453 18.9576 25.7087 19.1941 25.418 19.1941H19.9336C18.9449 19.1941 18.1406 18.3898 18.1406 17.4012C18.1406 16.4125 18.9449 15.6082 19.9336 15.6082H25.418C25.7087 15.6082 25.9453 15.8448 25.9453 16.1355V18.6668Z" fill="#8E8E8E"/>
<path d="M19.8455 16.8738C19.7068 16.8738 19.5708 16.9302 19.4727 17.0283C19.3746 17.1265 19.3182 17.2619 19.3182 17.4012C19.3182 17.5398 19.3746 17.6759 19.4727 17.7739C19.5708 17.872 19.7068 17.9285 19.8455 17.9285C19.9847 17.9285 20.1203 17.8721 20.2183 17.7739C20.3169 17.6759 20.3729 17.5398 20.3729 17.4012C20.3729 17.2625 20.3169 17.1264 20.2183 17.0283C20.1203 16.9302 19.9847 16.8738 19.8455 16.8738Z" fill="#8E8E8E"/>
<path d="M12.4453 25.9441C12.3066 25.9441 12.1706 26.0005 12.0725 26.0986C11.9744 26.1968 11.918 26.3328 11.918 26.4715C11.918 26.6102 11.9743 26.7462 12.0725 26.8442C12.1706 26.9423 12.3066 26.9988 12.4453 26.9988C12.584 26.9988 12.7201 26.9424 12.8181 26.8442C12.9162 26.7462 12.9727 26.6102 12.9727 26.4715C12.9727 26.3328 12.9162 26.1967 12.8181 26.0986C12.7201 26.0005 12.584 25.9441 12.4453 25.9441Z" fill="#8E8E8E"/>
</svg>
